<svg width="32" height="32" viewBox="0 0 32 32" xmlns="http://www.w3.org/2000/svg">
<path fill-rule="evenodd" clip-rule="evenodd" d="M16 28C22.6274 28 28 22.6274 28 16C28 9.37258 22.6274 4 16 4C9.37258 4 4 9.37258 4 16C4 22.6274 9.37258 28 16 28ZM16 30C23.732 30 30 23.732 30 16C30 8.26801 23.732 2 16 2C8.26801 2 2 8.26801 2 16C2 23.732 8.26801 30 16 30ZM16 8C16.5523 8 17 8.44772 17 9V15H23C23.5523 15 24 15.4477 24 16C24 16.5523 23.5523 17 23 17H17V23C17 23.5523 16.5523 24 16 24C15.4477 24 15 23.5523 15 23V17H9C8.44771 17 8 16.5523 8 16C8 15.4477 8.44771 15 9 15H15V9C15 8.44772 15.4477 8 16 8Z"/>
</svg>
