<svg width="32" height="32" viewBox="0 0 32 32" xmlns="http://www.w3.org/2000/svg">
<path fill-rule="evenodd" clip-rule="evenodd" d="M18 2H14V4.20004C9.43552 5.12658 6 9.16208 6 14V19.5858L3.32218 22.2636C3.11589 22.4699 3 22.7497 3 23.0414V25.9C3 26.5075 3.49249 27 4.1 27H14V28C14 29.1046 14.8954 30 16 30C17.1046 30 18 29.1046 18 28V27H27.9C28.5075 27 29 26.5075 29 25.9V23.0414C29 22.7497 28.8841 22.4699 28.6778 22.2636L26 19.5858V14C26 9.16208 22.5645 5.12658 18 4.20004V2ZM16 6C11.5817 6 8 9.58172 8 14V20.4142L5 23.4142V25H16H27V23.4142L24 20.4142V14C24 9.58172 20.4183 6 16 6Z"/>
</svg>
