<svg width="32" height="32" viewBox="0 0 32 32" xmlns="http://www.w3.org/2000/svg">
<path fill-rule="evenodd" clip-rule="evenodd" d="M6 4C4.89543 4 4 4.89543 4 6V26C4 27.1046 4.89543 28 6 28H26C27.1046 28 28 27.1046 28 26V6C28 4.89543 27.1046 4 26 4H6ZM23.7433 11.669C24.1128 11.2585 24.0795 10.6262 23.669 10.2567C23.2585 9.88725 22.6262 9.92053 22.2567 10.331L13.9618 19.5476L9.70711 15.2929C9.31658 14.9024 8.68342 14.9024 8.29289 15.2929C7.90237 15.6834 7.90237 16.3166 8.29289 16.7071L13.2929 21.7071C13.4869 21.9011 13.752 22.0069 14.0263 21.9997C14.3005 21.9924 14.5598 21.8729 14.7433 21.669L23.7433 11.669Z"/>
</svg>
