<svg width="32" height="32" viewBox="0 0 32 32" xmlns="http://www.w3.org/2000/svg">
<path fill-rule="evenodd" clip-rule="evenodd" d="M28 16C28 22.6274 22.6274 28 16 28C9.37258 28 4 22.6274 4 16C4 9.37258 9.37258 4 16 4C22.6274 4 28 9.37258 28 16ZM30 16C30 23.732 23.732 30 16 30C8.26801 30 2 23.732 2 16C2 8.26801 8.26801 2 16 2C23.732 2 30 8.26801 30 16ZM20.2426 10.3432C20.6331 9.95263 21.2663 9.95263 21.6568 10.3432C22.0473 10.7337 22.0473 11.3668 21.6568 11.7574L17.4142 16L21.6568 20.2427C22.0473 20.6332 22.0473 21.2663 21.6568 21.6569C21.2663 22.0474 20.6331 22.0474 20.2426 21.6569L16 17.4142L11.7573 21.6569C11.3668 22.0474 10.7336 22.0474 10.3431 21.6569C9.95258 21.2663 9.95258 20.6332 10.3431 20.2426L14.5857 16L10.3431 11.7574C9.95257 11.3668 9.95257 10.7337 10.3431 10.3432C10.7336 9.95263 11.3668 9.95263 11.7573 10.3432L16 14.5858L20.2426 10.3432Z"/>
</svg>
