<svg width="32" height="32" viewBox="0 0 32 32" xmlns="http://www.w3.org/2000/svg">
<path fill-rule="evenodd" clip-rule="evenodd" d="M21.2077 28.9996C26.3611 26.9335 30 21.8922 30 16C30 8.26733 23.7303 2 16 2C8.26733 2 2 8.26973 2 16C2 19.8383 3.5448 23.3156 6.04623 25.8445C6.60624 24.3603 7.37596 22.9895 8.35386 21.7077C8.12615 21.564 7.90482 21.5647 7.69268 21.5654H7.69264C7.61386 21.5657 7.53635 21.5659 7.46024 21.5587C5.52167 21.3762 4.27733 20.1414 3.16992 18.7217C2.84803 18.3086 2.97054 17.8642 3.41494 17.5783C4.11496 17.1262 4.8764 16.7898 5.63503 16.4545L5.6352 16.4545L5.63537 16.4544L5.63553 16.4543L5.63575 16.4542C5.75161 16.403 5.8674 16.3519 5.98289 16.3003C6.39127 16.1178 6.68193 16.3556 6.95338 16.6318C8.38509 18.0948 10.3309 18.4071 12.2238 17.5255C12.6274 17.3381 12.6538 17.0955 12.5193 16.7664C12.2694 16.1466 12.5169 15.7358 13.0357 15.4091C13.0663 15.3902 13.1106 15.3834 13.1556 15.3765C13.259 15.3606 13.3661 15.3442 13.3192 15.1785C13.2736 15.0176 13.1823 14.8446 12.9733 14.8494C11.9932 14.8758 11.3302 14.4122 10.9674 13.5234C10.5351 12.4688 10.6672 11.4023 11.2173 10.4654C12.452 8.35627 14.3497 7.11433 16.7327 6.63389C17.6383 6.45133 18.5127 6.65551 19.2502 7.21523C19.8988 7.70768 20.5618 7.99834 21.4002 8.00795C22.1641 8.01756 22.2794 8.30102 21.8158 8.89676C21.6679 9.08729 21.4497 9.32723 21.2479 9.54924L21.2478 9.54925L21.2478 9.54932L21.2477 9.54937C21.0068 9.81436 20.789 10.0538 20.742 10.1531C20.6825 10.2772 20.8913 10.6564 21.1215 11.0744C21.2166 11.247 21.3152 11.4262 21.4002 11.5968C22.0656 12.9252 21.7173 14.4002 20.7996 15.6277C20.5666 15.9376 20.5114 16.1658 20.6531 16.5406L20.6616 16.5629C20.835 17.0209 21.0296 17.5351 20.5498 17.9795C20.3866 18.1315 20.5335 18.2274 20.6418 18.298L20.6553 18.3069L20.6651 18.3134C20.934 18.4909 21.1995 18.6744 21.4651 18.8578C22.3527 19.471 23.2407 20.0845 24.254 20.4802L24.2936 20.4958C24.6471 20.6357 25.0783 20.8064 25.3422 20.2856C25.4137 19.7975 25.3916 19.3316 25.3685 18.8438C25.3567 18.5946 25.3446 18.3396 25.3446 18.0732C25.3302 17.9206 25.3155 17.7681 25.3008 17.6156C25.2566 17.158 25.2125 16.7003 25.1764 16.2427C25.1596 16.0409 25.0467 15.9568 24.8882 15.8607C24.2273 15.4638 23.5747 15.0566 22.9208 14.6486L22.9207 14.6486L22.7574 14.5467C22.3467 14.2897 21.9191 14.0014 22.2313 13.4369C22.5388 12.8868 22.9952 13.0333 23.4348 13.2976C23.4756 13.3211 23.5205 13.3365 23.5688 13.353C23.5945 13.3617 23.6211 13.3708 23.6486 13.3817C23.7193 13.122 23.6691 12.8752 23.6194 12.6304C23.5913 12.4924 23.5634 12.3551 23.5574 12.2166C23.5213 11.2797 24.1339 10.5495 25.0659 10.451C26.0677 10.3453 26.8268 10.917 26.9541 11.8755C27.0162 12.3399 27.0739 12.8043 27.1317 13.2694C27.1588 13.4876 27.1859 13.706 27.2135 13.9246L27.214 13.9287C27.2644 14.324 27.3207 14.7664 27.0502 15.0632C26.6144 15.5416 26.739 16.006 26.8784 16.5255L26.8844 16.5478C27.1281 17.4586 27.3534 18.3748 27.5788 19.2913L27.5789 19.2917C27.6578 19.6126 27.7367 19.9335 27.8165 20.2543C27.9678 20.9222 27.9318 21.9455 27.8165 22.2554C27.127 23.7015 26.5481 24.069 24.9674 23.9537C23.9633 23.8817 22.9904 23.6535 22.0416 23.3364C21.481 23.1495 21.4651 23.3975 21.4364 23.8468L21.4362 23.8504C21.3984 24.3835 21.4059 24.9151 21.4133 25.4457C21.4196 25.8931 21.4259 26.3398 21.405 26.7859C21.393 27.0454 21.3497 27.3528 21.3161 27.5666C21.3161 28.0452 21.2636 28.5223 21.2077 28.9996ZM11.1109 29.1224C11.2473 27.7717 11.3804 26.4181 11.4479 25.0563C9.96302 25.8892 9.48542 26.9246 9.87321 28.5915C10.2754 28.7875 10.6883 28.9649 11.1109 29.1224ZM16.2067 11.4358C17.2997 10.266 18.4407 9.15375 19.9902 8.42108C18.8491 7.48182 17.7489 6.72753 16.2571 7.22959C14.614 7.7797 13.2064 8.67571 12.1422 10.0642C11.6641 10.6864 11.4359 11.395 11.4335 12.1853C11.4311 12.8916 11.6161 13.5233 12.2671 13.8669C12.9085 14.2056 13.5066 13.9317 14.0423 13.5378C14.7344 13.0304 15.3116 12.4047 15.8883 11.7795C15.9942 11.6647 16.1001 11.5499 16.2067 11.4358ZM11.5873 18.5512C10.3694 19.0052 9.11549 19.1949 7.82791 18.9619C7.36909 18.8803 6.94391 18.6761 6.58838 18.3518C6.56602 18.3314 6.54335 18.3044 6.51991 18.2766C6.43001 18.1697 6.3287 18.0493 6.18962 18.2341C6.06881 18.3951 6.20363 18.4904 6.31794 18.5712C6.34682 18.5916 6.3744 18.611 6.3962 18.6304C7.07603 19.2382 7.91679 19.4135 8.78639 19.4135C9.20571 19.4135 9.62391 19.3625 10.0324 19.3126C10.2183 19.2899 10.4022 19.2675 10.5832 19.2502C9.43018 20.8861 7.52283 21.2632 5.82448 20.1462C5.1879 19.7258 4.62098 19.2214 4.08289 18.6761C3.68413 18.2725 3.60245 17.9698 4.21501 17.708C4.68767 17.504 5.14844 17.2745 5.60875 17.0452L5.60877 17.0452L5.60904 17.0451C5.69606 17.0017 5.78306 16.9584 5.87012 16.9153C5.89131 16.9049 5.91242 16.8941 5.93345 16.8834C6.11272 16.7917 6.28641 16.7029 6.45626 16.9201C7.67658 18.4791 9.35811 18.58 11.1285 18.4142C11.166 18.4071 11.2051 18.3941 11.2441 18.3811C11.3906 18.3323 11.5361 18.2838 11.5873 18.5512ZM15.8415 16.7656C17.2492 16.8785 18.7571 16.9994 20.1464 16.7135C20.4803 16.37 19.8509 16.3796 19.6779 16.3964C17.6577 16.382 15.6447 16.2739 13.6508 15.9304C13.2256 15.856 13.0767 15.9905 13.192 16.4493C13.2861 16.8298 13.3174 17.2256 13.3485 17.6197C13.3509 17.6499 13.3533 17.6802 13.3557 17.7105C13.3572 17.7289 13.3587 17.7473 13.3602 17.7657C13.3794 18.0131 13.4442 18.2005 13.7109 18.2509C15.8681 18.6521 17.9075 18.1837 19.9038 17.4126L19.9235 17.4051C20.0835 17.3449 20.5235 17.1793 20.4683 17.0114C20.4141 16.8488 20.0726 16.9374 19.873 16.9892L19.873 16.9892L19.8729 16.9893C19.825 17.0017 19.7852 17.012 19.7596 17.0162C18.3399 17.2492 16.9154 17.2348 15.4933 17.0715C15.396 17.0606 15.2953 17.0576 15.1939 17.0546C14.8698 17.0451 14.5376 17.0353 14.2778 16.7664C14.5629 16.54 14.8567 16.6082 15.1485 16.676C15.2624 16.7024 15.3759 16.7288 15.4885 16.7376C15.6054 16.7467 15.7231 16.7561 15.8415 16.7656ZM19.9539 13.8021C19.5863 13.7901 19.2692 13.694 19.2836 13.1847C19.3005 12.5481 19.7905 11.9019 20.295 11.9476C20.8859 12.0004 21.1069 12.4544 21.1694 12.9613C21.227 13.4105 20.6577 13.7901 19.9539 13.8021Z"/>
</svg>
