<svg width="32" height="32" viewBox="0 0 32 32" xmlns="http://www.w3.org/2000/svg">
<path fill-rule="evenodd" clip-rule="evenodd" d="M13 4H19V6H13V4ZM11 6V4C11 2.89543 11.8954 2 13 2H19C20.1046 2 21 2.89543 21 4V6H25.79H29C29.5523 6 30 6.44772 30 7C30 7.55228 29.5523 8 29 8H27.7902C27.7901 8.06573 27.7868 8.13212 27.7801 8.19901L25.7801 28.199C25.6779 29.2214 24.8175 30 23.79 30H8.20997C7.18247 30 6.32214 29.2214 6.2199 28.199L4.2199 8.19901C4.21321 8.13212 4.20989 8.06573 4.20978 8H3C2.44771 8 2 7.55228 2 7C2 6.44772 2.44772 6 3 6H6.20998H11ZM19 8H13H6.20998L8.20997 28H23.79L25.79 8H19ZM12 13C12 12.4477 12.4477 12 13 12C13.5523 12 14 12.4477 14 13V23C14 23.5523 13.5523 24 13 24C12.4477 24 12 23.5523 12 23V13ZM19 12C18.4477 12 18 12.4477 18 13V23C18 23.5523 18.4477 24 19 24C19.5523 24 20 23.5523 20 23V13C20 12.4477 19.5523 12 19 12Z"/>
</svg>
