<svg width="32" height="32" viewBox="0 0 32 32" xmlns="http://www.w3.org/2000/svg">
<path fill-rule="evenodd" clip-rule="evenodd" d="M24.6585 16.7525C25.0741 16.3888 25.1163 15.7571 24.7526 15.3414C24.3889 14.9258 23.7571 14.8837 23.3415 15.2474L17 20.7962L17 2.99994C17 2.44765 16.5523 1.99994 16 1.99994C15.4477 1.99994 15 2.44765 15 2.99994L15 20.7962L8.6585 15.2474C8.24287 14.8837 7.6111 14.9258 7.24742 15.3414C6.88374 15.7571 6.92586 16.3888 7.3415 16.7525L15.3415 23.7525C15.7185 24.0824 16.2815 24.0824 16.6585 23.7525L24.6585 16.7525ZM4 24C4 23.4477 3.55228 23 3 23C2.44772 23 2 23.4477 2 24V28.9C2 29.5075 2.49249 30 3.1 30H28.9C29.5075 30 30 29.5075 30 28.9V24C30 23.4477 29.5523 23 29 23C28.4477 23 28 23.4477 28 24V28H4V24Z"/>
</svg>
