<svg width="32" height="32" viewBox="0 0 32 32" xmlns="http://www.w3.org/2000/svg">
<path fill-rule="evenodd" clip-rule="evenodd" d="M22.2071 6.20712C23.1973 5.21693 24.8027 5.21693 25.7929 6.20712C26.7831 7.19731 26.7831 8.80272 25.7929 9.79291L24 11.5858L20.4142 8.00001L22.2071 6.20712ZM19 9.41422L6 22.4142V26H9.58579L22.5858 13L19 9.41422ZM27.2071 4.7929C25.4359 3.02167 22.5641 3.02167 20.7929 4.79291L4.32218 21.2636C4.1159 21.4699 4 21.7497 4 22.0414V26.9C4 27.5075 4.49249 28 5.1 28H9.95858C10.2503 28 10.5301 27.8841 10.7364 27.6778L27.2071 11.2071C28.9783 9.43588 28.9783 6.56414 27.2071 4.7929Z"/>
</svg>
