<svg width="32" height="32" viewBox="0 0 32 32" xmlns="http://www.w3.org/2000/svg">
<path fill-rule="evenodd" clip-rule="evenodd" d="M23.7488 25.1631C21.6581 26.9329 18.9537 28 16 28C13.0463 28 10.3418 26.9328 8.25111 25.163L15.9999 17.4142L23.7488 25.1631ZM25.163 23.7489L17.4141 16L25.163 8.25111C26.9328 10.3418 28 13.0463 28 16C28 18.9537 26.9328 21.6582 25.163 23.7489ZM23.7488 6.8369L15.9999 14.5858L8.25111 6.83699C10.3418 5.06717 13.0463 4 16 4C18.9537 4 21.6581 5.06714 23.7488 6.8369ZM6.8369 8.25121C5.06714 10.3419 4 13.0463 4 16C4 18.9537 5.06714 21.6581 6.8369 23.7488L14.5857 16L6.8369 8.25121ZM30 16C30 23.732 23.732 30 16 30C8.26801 30 2 23.732 2 16C2 8.26801 8.26801 2 16 2C23.732 2 30 8.26801 30 16Z"/>
</svg>
