<svg width="32" height="32" viewBox="0 0 32 32" xmlns="http://www.w3.org/2000/svg">
<path fill-rule="evenodd" clip-rule="evenodd" d="M29 8.23769L16.55 8.23765L13.85 5.5238C13.65 5.20954 13.35 5.00004 13 5.00004L3 5C2.45 5 2 5.47139 2 6.04752L2.00003 25.0909C2.00003 25.667 2.45003 26.1384 3.00003 26.1384L29 26.1384C29.55 26.1384 30 25.667 30 25.0909L30 9.28521C30 8.70907 29.55 8.23769 29 8.23769ZM12.4975 7.00004L15.7186 10.2376L28 10.2377L28 24.1384L4.00003 24.1384L4 7L12.4975 7.00004Z"/>
</svg>
