<svg width="32" height="32" viewBox="0 0 32 32" xmlns="http://www.w3.org/2000/svg">
<path fill-rule="evenodd" clip-rule="evenodd" d="M20.2146 6.40002L26.4586 23.883L28.1756 24.5073V25.6H21.3073V24.5073L23.4927 24.039L22.2439 20.1366H16L15.8439 20.4488L14.9073 17.639L19.122 6.71222L20.2146 6.40002ZM19.122 10.9269L16.4683 18.7317H21.7756L19.122 10.9269ZM8.81952 12.4878L9.60001 12.1756L14.1268 24.5073L15.2195 24.8195V25.6H10.3805V24.8195L11.9415 24.5073L11.0049 21.8536H6.79026L6.32196 23.1024C6.00977 24.1951 6.16587 24.5073 7.57074 24.8195L7.41465 25.6H3.20001V24.8195L4.2927 24.5073L8.81952 12.4878ZM8.81952 15.2975L6.94635 20.7609H10.6927L8.81952 15.2975Z"/>
</svg>
