<svg width="32" height="32" viewBox="0 0 32 32" xmlns="http://www.w3.org/2000/svg">
<path d="M27 9H24.4437C24.788 8.40933 25 7.73167 25 7C25 4.79433 23.206 3 21 3C18.724 3 17.0037 5.04833 16 6.98167C14.9963 5.04833 13.276 3 11 3C8.794 3 7 4.79433 7 7C7 7.73167 7.212 8.40933 7.55633 9H5C3.89733 9 3 9.897 3 11C3 11 3 14.4477 3 15C3.5 15 3.5 15 5 15V26C5 27.6543 6.34567 29 8 29H24C25.6543 29 27 27.6543 27 26V15C27.5527 15 27.5 15 29 15V11C29 9.897 28.1027 9 27 9ZM21 5C22.1027 5 23 5.897 23 7C23 8.103 22.1027 9 21 9H17.289C17.8857 7.48633 19.335 5 21 5ZM17 27H15V11H17V27ZM9 7C9 5.897 9.89733 5 11 5C12.665 5 14.1143 7.48633 14.711 9H11C9.89733 9 9 8.103 9 7ZM5 11H13V13H5V11ZM7 26V15H13V27H8C7.44833 27 7 26.5513 7 26ZM25 26C25 26.5513 24.5517 27 24 27H19V15H25V26ZM27 13H19V11H27V13Z"/>
</svg>
