<svg width="32" height="32" viewBox="0 0 32 32" xmlns="http://www.w3.org/2000/svg">
<path fill-rule="evenodd" clip-rule="evenodd" d="M6 12.4739L16 4.29206L26 12.4739V28H20V20C20 18.8954 19.1046 18 18 18H14C12.8954 18 12 18.8954 12 20V28H6V12.4739ZM14 28H18V20H14V28ZM14 30H5.1C4.49248 30 4 29.5075 4 28.9V12.0474C4 11.7175 4.14809 11.405 4.40344 11.196L15.3034 2.27785C15.7086 1.94632 16.2914 1.94633 16.6966 2.27785L27.5966 11.196C27.8519 11.405 28 11.7175 28 12.0474V28.9C28 29.5075 27.5075 30 26.9 30H18H14Z"/>
</svg>
