<svg width="32" height="32" viewBox="0 0 32 32" xmlns="http://www.w3.org/2000/svg">
<path fill-rule="evenodd" clip-rule="evenodd" d="M28 16C28 22.6274 22.6274 28 16 28C9.37258 28 4 22.6274 4 16C4 9.37258 9.37258 4 16 4C22.6274 4 28 9.37258 28 16ZM30 16C30 23.732 23.732 30 16 30C8.26801 30 2 23.732 2 16C2 8.26801 8.26801 2 16 2C23.732 2 30 8.26801 30 16ZM14.6001 9.4C14.6001 8.6268 15.2269 8 16.0001 8C16.7733 8 17.4001 8.6268 17.4001 9.4C17.4001 10.1732 16.7733 10.8 16.0001 10.8C15.2269 10.8 14.6001 10.1732 14.6001 9.4ZM15 14C15 13.4477 15.4477 13 16 13C16.5523 13 17 13.4477 17 14V23C17 23.5523 16.5523 24 16 24C15.4477 24 15 23.5523 15 23V14Z"/>
</svg>
