<svg width="32" height="32" viewBox="0 0 32 32" xmlns="http://www.w3.org/2000/svg">
<path fill-rule="evenodd" clip-rule="evenodd" d="M21.6572 4.60423C20.181 4.5368 19.7381 4.52257 16 4.52257V4.52245C12.2619 4.52245 11.819 4.5368 10.3428 4.60412C9.45505 4.61469 8.57569 4.77775 7.74315 5.08618C7.13939 5.31916 6.59108 5.67593 6.13348 6.13355C5.67588 6.59117 5.31914 7.13949 5.08618 7.74327C4.77775 8.57581 4.61469 9.45517 4.60412 10.3429C4.53668 11.8191 4.52245 12.262 4.52245 16.0001C4.52245 19.7382 4.5368 20.1811 4.60412 21.6573C4.61469 22.5451 4.77775 23.4244 5.08618 24.257C5.31915 24.8607 5.6759 25.409 6.1335 25.8666C6.59109 26.3242 7.1394 26.681 7.74315 26.9139C8.57569 27.2224 9.45505 27.3854 10.3428 27.396C11.8189 27.4634 12.2615 27.4777 16 27.4777C19.7385 27.4777 20.1811 27.4633 21.6572 27.396C22.5449 27.3854 23.4243 27.2224 24.2568 26.9139C24.8606 26.681 25.4089 26.3242 25.8665 25.8666C26.3241 25.409 26.6809 24.8607 26.9138 24.257C27.2223 23.4244 27.3853 22.5451 27.3959 21.6573C27.4633 20.1811 27.4775 19.7382 27.4775 16.0001C27.4775 12.262 27.4632 11.8191 27.3959 10.3429C27.3853 9.45517 27.2223 8.57581 26.9138 7.74327C26.6809 7.13952 26.3241 6.59121 25.8665 6.13362C25.4089 5.67602 24.8606 5.31927 24.2568 5.0863C23.4243 4.77786 22.5449 4.6148 21.6572 4.60423ZM10.2278 2.08423C11.721 2.0161 12.1978 2 16 2C19.8022 2 20.279 2.0161 21.7716 2.08482C22.9331 2.10808 24.0821 2.32812 25.17 2.73558C26.1001 3.09522 26.9448 3.64519 27.65 4.35027C28.3551 5.05534 28.9052 5.89996 29.265 6.83C29.6724 7.91768 29.8925 9.06656 29.9158 10.2278C29.9839 11.721 30 12.1978 30 16C30 19.8022 29.9839 20.279 29.9163 21.7716C29.8931 22.9331 29.673 24.0821 29.2656 25.17C28.9059 26.1001 28.3558 26.9449 27.6506 27.6501C26.9455 28.3552 26.1007 28.9053 25.1706 29.265C24.0827 29.6725 22.9336 29.8925 21.7722 29.9158C20.279 29.9839 19.8022 30 16 30C12.1978 30 11.721 29.9839 10.2284 29.9163C9.06695 29.8931 7.91786 29.6731 6.83 29.2656C5.89986 28.9059 5.05512 28.3558 4.34994 27.6506C3.64477 26.9455 3.0947 26.1007 2.735 25.1706C2.32754 24.0827 2.10749 22.9336 2.08423 21.7722C2.0161 20.279 2 19.8022 2 16C2 12.1978 2.0161 11.721 2.08423 10.2284C2.10748 9.06695 2.32752 7.91786 2.735 6.83C3.0947 5.89986 3.64477 5.05512 4.34994 4.34994C5.05512 3.64477 5.89986 3.0947 6.83 2.735C7.91768 2.32759 9.06656 2.10755 10.2278 2.08423ZM23.5 10C24.3284 10 25 9.32843 25 8.5C25 7.67157 24.3284 7 23.5 7C22.6716 7 22 7.67157 22 8.5C22 9.32843 22.6716 10 23.5 10ZM16 9C14.6155 9 13.2622 9.41054 12.111 10.1797C10.9599 10.9489 10.0627 12.0421 9.53285 13.3212C9.00303 14.6003 8.86441 16.0078 9.13451 17.3656C9.4046 18.7235 10.0713 19.9708 11.0503 20.9497C12.0292 21.9287 13.2765 22.5954 14.6344 22.8655C15.9922 23.1356 17.3997 22.997 18.6788 22.4672C19.9579 21.9373 21.0511 21.0401 21.8203 19.889C22.5895 18.7378 23 17.3845 23 16C23 14.1435 22.2625 12.363 20.9497 11.0503C19.637 9.7375 17.8565 9 16 9ZM16 20.5438C15.1013 20.5438 14.2228 20.2773 13.4756 19.7781C12.7284 19.2788 12.146 18.5691 11.802 17.7388C11.4581 16.9086 11.3682 15.995 11.5435 15.1135C11.7188 14.2321 12.1516 13.4225 12.787 12.787C13.4225 12.1516 14.2321 11.7188 15.1135 11.5435C15.995 11.3682 16.9086 11.4581 17.7388 11.802C18.5691 12.146 19.2788 12.7284 19.7781 13.4756C20.2773 14.2228 20.5438 15.1013 20.5438 16C20.5438 17.2051 20.0651 18.3608 19.213 19.213C18.3608 20.0651 17.2051 20.5438 16 20.5438Z"/>
</svg>
