<svg width="32" height="32" viewBox="0 0 32 32" xmlns="http://www.w3.org/2000/svg">
<path fill-rule="evenodd" clip-rule="evenodd" d="M16 30L7.56451 20.0513C7.51661 19.9942 7.21631 19.5998 7.21631 19.5998C5.77521 17.7017 4.99663 15.3832 5.00001 13C5.00001 10.0826 6.15894 7.28473 8.22184 5.22183C10.2847 3.15893 13.0826 2 16 2C18.9174 2 21.7153 3.15893 23.7782 5.22183C25.8411 7.28473 27 10.0826 27 13C27.0036 15.3822 26.2255 17.6998 24.7852 19.5973L24.7837 19.5998C24.7837 19.5998 24.4837 19.9942 24.439 20.0472L16 30ZM8.81251 18.395L8.86057 18.4581L8.8606 18.4581C8.93185 18.5519 9.06114 18.7221 9.09911 18.7694L16 26.9079L22.91 18.7579C22.9539 18.7027 23.1888 18.3922 23.1888 18.3922C24.3661 16.8413 25.0023 14.9471 25 13C25 10.6131 24.0518 8.32387 22.364 6.63604C20.6761 4.94821 18.387 4 16 4C13.6131 4 11.3239 4.94821 9.63605 6.63604C7.94822 8.32387 7.00001 10.6131 7.00001 13C6.9978 14.9482 7.63449 16.8433 8.81251 18.395ZM16 16C17.6569 16 19 14.6569 19 13C19 11.3431 17.6569 10 16 10C14.3431 10 13 11.3431 13 13C13 14.6569 14.3431 16 16 16Z"/>
</svg>
