<svg width="32" height="32" viewBox="0 0 32 32" xmlns="http://www.w3.org/2000/svg">
<path fill-rule="evenodd" clip-rule="evenodd" d="M20 12V8C20 5.79086 18.2091 4 16 4C13.7909 4 12 5.79086 12 8V12H20ZM22 12V8C22 4.68629 19.3137 2 16 2C12.6863 2 10 4.68629 10 8V12H6C4.89543 12 4 12.8954 4 14V28C4 29.1046 4.89543 30 6 30H26C27.1046 30 28 29.1046 28 28V14C28 12.8954 27.1046 12 26 12H22ZM22 14H20H12H10H6L6 28H26V14H22ZM15 18C15 17.4477 15.4477 17 16 17C16.5523 17 17 17.4477 17 18V24C17 24.5523 16.5523 25 16 25C15.4477 25 15 24.5523 15 24V18Z"/>
</svg>
