<svg width="32" height="32" viewBox="0 0 32 32" xmlns="http://www.w3.org/2000/svg">
<path fill-rule="evenodd" clip-rule="evenodd" d="M26.27 8H5.72995L16 16.69L26.27 8ZM4 9.1561V22.5857L11.2744 15.3113L4 9.1561ZM5.41413 24H26.0858L18.9226 16.8369L16.6459 18.7633C16.273 19.0788 15.7269 19.0788 15.354 18.7633L12.8064 16.6077L5.41413 24ZM28 23.0858V9.15603L20.4547 15.5405L28 23.0858ZM2 8C2 6.89543 2.89543 6 4 6H28C29.1046 6 30 6.89543 30 8V24C30 25.1046 29.1046 26 28 26H4C2.89543 26 2 25.1046 2 24V8Z"/>
</svg>
