<svg width="32" height="32" viewBox="0 0 32 32" xmlns="http://www.w3.org/2000/svg">
<path d="M24.0235 10.0976C24.3114 8.23067 24.0215 6.96019 23.0285 5.80957C21.9353 4.54272 19.9604 4 17.4335 4H10.0988C9.58217 4 9.14258 4.38215 9.06211 4.90096L6.00782 24.5971C5.94757 24.9857 6.24301 25.337 6.62975 25.337H11.1579L10.8455 27.3526C10.7927 27.6926 11.0511 28 11.3896 28H15.2062C15.658 28 16.0426 27.6657 16.113 27.2119L16.1504 27.0147L16.8695 22.3779L16.9159 22.1217C16.9861 21.6679 17.3708 21.3336 17.8225 21.3336H18.3936C22.0911 21.3336 24.9863 19.8058 25.8323 15.3877C26.1858 13.5415 26.003 12.0006 25.0682 10.9173C24.7855 10.5896 24.4337 10.3185 24.0235 10.0976Z" fill="#179AD6"/>
<path d="M24.0235 10.0976C24.3114 8.23067 24.0215 6.96019 23.0285 5.80957C21.9353 4.54272 19.9604 4 17.4335 4H10.0988C9.58217 4 9.14258 4.38215 9.06211 4.90096L6.00782 24.5971C5.94757 24.9857 6.24301 25.337 6.62975 25.337H11.1579L12.2954 18.002L12.2602 18.2319C12.3406 17.7132 12.7767 17.3312 13.293 17.3312H15.4451C19.6718 17.3312 22.9814 15.5848 23.9484 10.5343C23.9771 10.3849 24.0015 10.2399 24.0235 10.0976Z" fill="#1F3D7C"/>
<path d="M13.5174 10.1223C13.5657 9.81033 13.7626 9.55476 14.0278 9.42563C14.1483 9.36691 14.2829 9.33426 14.4242 9.33426H20.1736C20.8547 9.33426 21.4898 9.37954 22.0705 9.47468C22.2364 9.50182 22.3979 9.53299 22.5547 9.56847C22.7116 9.60381 22.8638 9.64345 23.0112 9.68725C23.085 9.70915 23.1574 9.73213 23.2287 9.75618C23.5137 9.85239 23.7792 9.96594 24.0235 10.0976C24.3114 8.23067 24.0215 6.96019 23.0285 5.80957C21.9353 4.54272 19.9604 4 17.4335 4H10.0988C9.58217 4 9.14258 4.38215 9.06211 4.90096L6.00782 24.5971C5.94757 24.9857 6.24301 25.337 6.62975 25.337H11.1579L12.2954 18.002L13.5174 10.1223Z" fill="#222D65"/>
</svg>
