<svg width="32" height="32" viewBox="0 0 32 32" xmlns="http://www.w3.org/2000/svg">
<path fill-rule="evenodd" clip-rule="evenodd" d="M16 18C17.7005 18 19 16.6555 19 15.1429V7.85714C19 6.34454 17.7005 5 16 5C14.2995 5 13 6.34454 13 7.85714V15.1429C13 16.6555 14.2995 18 16 18ZM21 15.1429C21 17.8143 18.75 20 16 20C13.25 20 11 17.8143 11 15.1429V7.85714C11 5.18571 13.25 3 16 3C18.75 3 21 5.18571 21 7.85714V15.1429Z"/>
<path d="M21 24C23.2 24 25 22.2 25 20V12H23V20C23 21.1 22.1 22 21 22H17H15H11C9.9 22 9 21.1 9 20V12H7V20C7 22.2 8.8 24 11 24H15V27H8V29H24V27H17V24H21Z"/>
</svg>
