<svg width="32" height="32" viewBox="0 0 32 32" xmlns="http://www.w3.org/2000/svg">
<path fill-rule="evenodd" clip-rule="evenodd" d="M12.5352 4C11.8665 4 11.242 4.3342 10.8711 4.8906L9.46482 7H4C2.89543 7 2 7.89543 2 9V26C2 27.1046 2.89543 28 4 28H28C29.1046 28 30 27.1046 30 26V9C30 7.89543 29.1046 7 28 7H22.5352L21.1289 4.8906C20.758 4.3342 20.1335 4 19.4648 4H12.5352ZM12.5352 6H19.4648L20.8711 8.1094C21.242 8.6658 21.8665 9 22.5352 9H28V26H4V9L9.46482 9C10.1335 9 10.758 8.6658 11.1289 8.1094L12.5352 6ZM20 17C20 19.2091 18.2091 21 16 21C13.7909 21 12 19.2091 12 17C12 14.7909 13.7909 13 16 13C18.2091 13 20 14.7909 20 17ZM22 17C22 20.3137 19.3137 23 16 23C12.6863 23 10 20.3137 10 17C10 13.6863 12.6863 11 16 11C19.3137 11 22 13.6863 22 17Z"/>
</svg>
