<svg width="32" height="32" viewBox="0 0 32 32" xmlns="http://www.w3.org/2000/svg">
<path d="M22.4488 5.08C23.1767 5.07936 23.8974 5.2299 24.5687 5.52278C25.24 5.81565 25.8483 6.24499 26.358 6.7856C27.4082 7.89464 27.9969 9.38888 27.9969 10.9456C27.9969 12.5023 27.4082 13.9966 26.358 15.1056L16 26L5.642 15.1056C4.59179 13.9966 4.00311 12.5023 4.00311 10.9456C4.00311 9.38888 4.59179 7.89464 5.642 6.7856C6.15199 6.24538 6.76036 5.81627 7.43157 5.52335C8.10277 5.23042 8.82336 5.07956 9.55125 5.07956C10.2791 5.07956 10.9997 5.23042 11.6709 5.52335C12.3421 5.81627 12.9505 6.24538 13.4605 6.7856L16 9.5L18.5295 6.8064C19.0377 6.25934 19.6466 5.8245 20.32 5.52787C20.9935 5.23123 21.7175 5.07891 22.4488 5.08ZM22.4488 3C21.4546 2.99913 20.4702 3.20473 19.5534 3.60476C18.6366 4.0048 17.8058 4.5912 17.1098 5.3296L16 6.5L14.8902 5.3296C14.1933 4.59254 13.3623 4.00715 12.4457 3.60756C11.529 3.20797 10.5451 3.00218 9.55125 3.00218C8.55738 3.00218 7.57345 3.20797 6.65682 3.60756C5.74019 4.00715 4.90919 4.59254 4.21228 5.3296C2.79443 6.83097 2 8.85141 2 10.956C2 13.0606 2.79443 15.081 4.21228 16.5824L16 29L27.7877 16.5824C29.2056 15.081 30 13.0606 30 10.956C30 8.85141 29.2056 6.83097 27.7877 5.3296C27.091 4.59214 26.2601 4.00635 25.3434 3.60639C24.4268 3.20642 23.4428 3.00029 22.4488 3Z"/>
</svg>
