<svg width="32" height="32" viewBox="0 0 32 32" xmlns="http://www.w3.org/2000/svg">
<path d="M19.5534 3.60476C20.4702 3.20473 21.4546 2.99913 22.4488 3C23.4428 3.00029 24.4268 3.20642 25.3434 3.60639C26.2601 4.00635 27.091 4.59214 27.7877 5.3296C29.2056 6.83097 30 8.85141 30 10.956C30 13.0606 29.2056 15.081 27.7877 16.5824L16 29L4.21228 16.5824C2.79443 15.081 2 13.0606 2 10.956C2 8.85141 2.79443 6.83097 4.21228 5.3296C4.90919 4.59254 5.74019 4.00715 6.65682 3.60756C7.57345 3.20797 8.55738 3.00218 9.55125 3.00218C10.5451 3.00218 11.529 3.20797 12.4457 3.60756C13.3623 4.00715 14.1933 4.59254 14.8902 5.3296L16 6.5L17.1098 5.3296C17.8058 4.5912 18.6366 4.0048 19.5534 3.60476Z"/>
</svg>
