<svg width="32" height="32" viewBox="0 0 32 32" xmlns="http://www.w3.org/2000/svg">
<path fill-rule="evenodd" clip-rule="evenodd" d="M6 5C6 4.44772 5.55228 4 5 4C4.44772 4 4 4.44772 4 5V14C4 17.866 7.13401 21 11 21H24.8258L20.2407 26.3492C19.8813 26.7685 19.9299 27.3998 20.3492 27.7593C20.7685 28.1187 21.3998 28.0701 21.7593 27.6508L27.7593 20.6508C28.0802 20.2763 28.0802 19.7237 27.7593 19.3492L21.7593 12.3492C21.3998 11.9299 20.7685 11.8813 20.3492 12.2407C19.9299 12.6002 19.8813 13.2315 20.2407 13.6508L24.8258 19H11C8.23858 19 6 16.7614 6 14V5Z"/>
</svg>
