<svg width="32" height="32" viewBox="0 0 32 32" xmlns="http://www.w3.org/2000/svg">
<path fill-rule="evenodd" clip-rule="evenodd" d="M24 14C24 19.5228 19.5228 24 14 24C8.47715 24 4 19.5228 4 14C4 8.47715 8.47715 4 14 4C19.5228 4 24 8.47715 24 14ZM21.7488 23.1631C19.6582 24.9328 16.9537 26 14 26C7.37258 26 2 20.6274 2 14C2 7.37258 7.37258 2 14 2C20.6274 2 26 7.37258 26 14C26 16.9537 24.9328 19.6582 23.1631 21.7488L28.7071 27.2929C29.0976 27.6834 29.0976 28.3166 28.7071 28.7071C28.3166 29.0976 27.6834 29.0976 27.2929 28.7071L21.7488 23.1631Z"/>
</svg>
