<svg width="32" height="32" viewBox="0 0 32 32" xmlns="http://www.w3.org/2000/svg">
<path d="M27.8538 11.7941L20.8541 4.15758C20.7091 4.00485 20.4941 3.95576 20.3092 4.04303C20.1192 4.12485 19.9992 4.32667 19.9992 4.54486V7.7904C18.3343 7.74676 13.2245 7.98677 9.17973 12.0014C5.76491 15.3997 4.02 20.598 4 27.4545C4 27.7218 4.17499 27.9509 4.41998 27.9945C4.44498 28 4.47498 28 4.49997 28C4.70996 28 4.90495 27.8527 4.97495 27.6291C5.10994 27.1818 8.42477 16.8397 19.9992 16.5506V19.818C19.9992 20.0362 20.1192 20.238 20.3092 20.3198C20.4941 20.4071 20.7091 20.358 20.8541 20.2053L27.8538 12.5687C28.0487 12.356 28.0487 12.0069 27.8538 11.7941Z"/>
</svg>
