<svg width="32" height="32" viewBox="0 0 32 32" xmlns="http://www.w3.org/2000/svg">
<path fill-rule="evenodd" clip-rule="evenodd" d="M28 16C28 22.6274 22.6274 28 16 28C9.37258 28 4 22.6274 4 16C4 9.37258 9.37258 4 16 4C22.6274 4 28 9.37258 28 16ZM30 16C30 23.732 23.732 30 16 30C8.26801 30 2 23.732 2 16C2 8.26801 8.26801 2 16 2C23.732 2 30 8.26801 30 16ZM20 8C17.0724 8 14.7966 8.80082 13.2478 10.2759C12.4353 11.0497 11.8576 11.976 11.4915 13H10C9.44772 13 9 13.4477 9 14C9 14.5523 9.44772 15 10 15H11.0493C11.0163 15.3284 11 15.6621 11 16C11 16.3379 11.0163 16.6716 11.0493 17H10C9.44772 17 9 17.4477 9 18C9 18.5523 9.44772 19 10 19H11.4915C11.8576 20.024 12.4353 20.9503 13.2478 21.7241C14.7966 23.1992 17.0724 24 20 24C20.5523 24 21 23.5523 21 23C21 22.4477 20.5523 22 20 22C17.4276 22 15.7034 21.3008 14.6272 20.2759C14.2395 19.9066 13.9194 19.4795 13.6688 19H18C18.5523 19 19 18.5523 19 18C19 17.4477 18.5523 17 18 17H13.0618C13.0207 16.6794 13 16.3458 13 16C13 15.6542 13.0207 15.3206 13.0618 15H18C18.5523 15 19 14.5523 19 14C19 13.4477 18.5523 13 18 13H13.6688C13.9194 12.5205 14.2395 12.0934 14.6272 11.7241C15.7034 10.6992 17.4276 10 20 10C20.5523 10 21 9.55228 21 9C21 8.44772 20.5523 8 20 8Z"/>
</svg>
