<svg width="32" height="32" viewBox="0 0 32 32" xmlns="http://www.w3.org/2000/svg">
<path fill-rule="evenodd" clip-rule="evenodd" d="M14 8H28V11.416C26.2341 12.1876 25 13.9497 25 16C25 18.0503 26.2341 19.8124 28 20.584V24H14V20H12V24H4V20.584C5.7659 19.8124 7 18.0503 7 16C7 13.9497 5.7659 12.1876 4 11.416V8H12V12H14V8ZM30 13V11V8C30 6.89543 29.1046 6 28 6H4C2.89543 6 2 6.89543 2 8V11V13C2.76835 13 3.46924 13.2889 4 13.7639C4.61375 14.3132 5 15.1115 5 16C5 16.8885 4.61375 17.6868 4 18.2361C3.46924 18.7111 2.76835 19 2 19V21V24C2 25.1046 2.89543 26 4 26H28C29.1046 26 30 25.1046 30 24V21V19C29.2316 19 28.5308 18.7111 28 18.2361C27.3863 17.6868 27 16.8885 27 16C27 15.1115 27.3863 14.3132 28 13.7639C28.5308 13.2889 29.2316 13 30 13ZM12 14H14V18H12V14Z"/>
</svg>
