<svg width="32" height="32" viewBox="0 0 32 32" xmlns="http://www.w3.org/2000/svg">
<path d="M10.8073 27.9997C12.9571 28.0139 15.0882 27.5778 17.077 26.7166C19.0658 25.8553 20.8726 24.5862 22.3928 22.9826C23.913 21.3791 25.1162 19.4732 25.9327 17.3754C26.7491 15.2776 27.1626 13.0296 27.1491 10.762C27.1491 10.4935 27.1491 10.2384 27.1491 9.96988C28.2635 9.10865 29.228 8.05033 30 6.84185C28.9507 7.32595 27.8403 7.64701 26.7036 7.79503C27.9088 7.03756 28.8131 5.84527 29.2491 4.43877C28.1259 5.14955 26.8943 5.64922 25.6091 5.91552C24.7435 4.9427 23.5982 4.29789 22.3502 4.08084C21.1023 3.8638 19.8213 4.08664 18.7055 4.71486C17.5897 5.34309 16.7013 6.3417 16.1777 7.55616C15.6541 8.77063 15.5246 10.1333 15.8091 11.4332C13.5259 11.315 11.2918 10.6908 9.25245 9.60137C7.21309 8.51191 5.41414 6.98158 3.97273 5.11002C3.2459 6.44068 3.0256 8.01295 3.35642 9.50849C3.68725 11.004 4.54447 12.3111 5.75455 13.165C4.86187 13.1287 3.98985 12.8712 3.20909 12.4132V12.4804C3.20116 13.871 3.64528 15.2224 4.46744 16.3095C5.2896 17.3966 6.44013 18.1537 7.72727 18.4545C6.89699 18.69 6.02728 18.7267 5.18182 18.5619C5.55445 19.7478 6.26578 20.7831 7.21824 21.5258C8.1707 22.2685 9.31766 22.6822 10.5018 22.7102C8.47718 24.4293 5.96084 25.3756 3.36182 25.3952C2.90612 25.3813 2.4515 25.341 2 25.2744C4.63067 27.0423 7.68808 27.9744 10.8073 27.9594"/>
</svg>
