<svg width="32" height="32" viewBox="0 0 32 32" xmlns="http://www.w3.org/2000/svg">
<path d="M15.2889 20.9867H16.7041L17.0411 13.2775H14.9654L15.2889 20.9867ZM17.0411 24.3832V22.4101H14.9519V24.3832H17.0411Z"/>
<path fill-rule="evenodd" clip-rule="evenodd" d="M29.1236 26.5182L16.8763 4.24453C16.4964 3.55362 15.5036 3.55362 15.1237 4.24453L2.87642 26.5182C2.50996 27.1846 2.99213 28 3.75269 28H28.2473C29.0079 28 29.4901 27.1846 29.1236 26.5182ZM18.6288 3.28088C17.4891 1.20817 14.5109 1.20817 13.3712 3.28088L1.12388 25.5545C0.0245214 27.5539 1.47102 30 3.75269 30H28.2473C30.529 30 31.9755 27.5539 30.8762 25.5545L18.6288 3.28088Z"/>
</svg>
