<svg width="32" height="32" viewBox="0 0 32 32" xmlns="http://www.w3.org/2000/svg">
<path fill-rule="evenodd" clip-rule="evenodd" d="M4 16C4 9.37258 9.37258 4 16 4C22.6274 4 28 9.37258 28 16C28 22.6274 22.6274 28 16 28C9.37258 28 4 22.6274 4 16ZM2 16C2 8.26801 8.26801 2 16 2C23.732 2 30 8.26801 30 16C30 23.732 23.732 30 16 30C8.26801 30 2 23.732 2 16ZM17.3999 22.6C17.3999 23.3732 16.7731 24 15.9999 24C15.2267 24 14.5999 23.3732 14.5999 22.6C14.5999 21.8268 15.2267 21.2 15.9999 21.2C16.7731 21.2 17.3999 21.8268 17.3999 22.6ZM17 18C17 18.5523 16.5523 19 16 19C15.4477 19 15 18.5523 15 18V9C15 8.44772 15.4477 8 16 8C16.5523 8 17 8.44772 17 9V18Z"/>
</svg>
