<svg width="32" height="32" viewBox="0 0 32 32" xmlns="http://www.w3.org/2000/svg">
<path fill-rule="evenodd" clip-rule="evenodd" d="M16.0586 29.7594H16.0528C13.7196 29.7586 11.4269 29.176 9.39058 28.0706L2 30L3.97784 22.8103C2.75781 20.7061 2.11584 18.3192 2.11689 15.8738C2.11994 8.22387 8.37408 2 16.0585 2C19.788 2.0016 23.2884 3.44654 25.9205 6.06915C28.5527 8.69163 30.0015 12.1775 30 15.8848C29.9969 23.533 23.7453 29.7563 16.0586 29.7594ZM9.73295 25.5587L10.1561 25.8087C11.9352 26.8594 13.9746 27.4153 16.0539 27.4161H16.0586C22.4453 27.4161 27.6435 22.2427 27.646 15.884C27.6472 12.8025 26.4431 9.90519 24.2553 7.72537C22.0676 5.54555 19.1582 4.34451 16.0631 4.34344C9.67146 4.34344 4.47324 9.51632 4.4707 15.8746C4.4698 18.0537 5.08243 20.1758 6.24236 22.0118L6.51788 22.4482L5.34728 26.7037L9.73295 25.5587ZM22.6052 18.8719C22.8481 18.9888 23.0122 19.0677 23.0823 19.1841C23.1693 19.3286 23.1693 20.0228 22.8792 20.8327C22.5888 21.6425 21.1971 22.3816 20.5278 22.4811C19.9277 22.5704 19.1682 22.6076 18.3337 22.3437C17.8278 22.184 17.1789 21.9706 16.3478 21.6134C13.0821 20.2101 10.8752 17.06 10.4581 16.4647C10.4288 16.423 10.4084 16.3938 10.397 16.3787L10.3942 16.3749C10.2099 16.1301 8.97461 14.4899 8.97461 12.7924C8.97461 11.1954 9.76281 10.3584 10.1256 9.97314C10.1505 9.94675 10.1733 9.92247 10.1938 9.90022C10.5131 9.55313 10.8905 9.46636 11.1227 9.46636C11.3549 9.46636 11.5874 9.4685 11.7904 9.47864C11.8154 9.47989 11.8415 9.47974 11.8684 9.47959C12.0714 9.4784 12.3245 9.47692 12.5742 10.0738C12.6702 10.3034 12.8107 10.644 12.959 11.0031C13.2587 11.7294 13.5899 12.5318 13.6482 12.6479C13.7353 12.8215 13.7933 13.0238 13.6772 13.2553C13.6598 13.29 13.6437 13.3228 13.6283 13.3541C13.5411 13.5313 13.4769 13.6616 13.3289 13.8336C13.2707 13.9012 13.2105 13.9741 13.1504 14.0471C13.0305 14.1923 12.9107 14.3375 12.8063 14.441C12.6319 14.6139 12.4504 14.8014 12.6536 15.1485C12.8568 15.4956 13.5559 16.6308 14.5915 17.5501C15.7047 18.5383 16.6722 18.956 17.1626 19.1677C17.2584 19.209 17.336 19.2425 17.3929 19.2708C17.7411 19.4444 17.9443 19.4154 18.1475 19.1841C18.3508 18.9527 19.0183 18.1717 19.2505 17.8247C19.4827 17.4778 19.715 17.5356 20.0343 17.6512C20.3537 17.767 22.0663 18.6056 22.4147 18.7791C22.4827 18.813 22.5462 18.8436 22.6052 18.8719Z"/>
</svg>
