<svg width="32" height="32" viewBox="0 0 32 32" xmlns="http://www.w3.org/2000/svg">
<path fill-rule="evenodd" clip-rule="evenodd" d="M26.9391 6.59677C28.1434 6.92581 29.0932 7.89355 29.4145 9.12258C30 11.3516 30 16 30 16C30 16 30 20.6484 29.4145 22.8774C29.0932 24.1065 28.1434 25.0742 26.9391 25.4032C24.7564 26 16 26 16 26C16 26 7.24364 26 5.06091 25.4032C3.85659 25.0742 2.90682 24.1065 2.58545 22.8774C2 20.6484 2 16 2 16C2 16 2 11.3516 2.58545 9.12258C2.90682 7.89355 3.85659 6.92581 5.06091 6.59677C7.24364 6 16 6 16 6C16 6 24.7564 6 26.9391 6.59677ZM20.5 16L13 20.221V11.779L20.5 16Z"/>
</svg>
